<?xml version="1.0" encoding="UTF-8"?>
<!DOCTYPE svg PUBLIC "-//W3C//DTD SVG 1.1//EN" "http://www.w3.org/Graphics/SVG/1.1/DTD/svg11.dtd">
<svg xmlns="http://www.w3.org/2000/svg" version="1.1" width="6829px" height="2854px" style="shape-rendering:geometricPrecision; text-rendering:geometricPrecision; image-rendering:optimizeQuality; fill-rule:evenodd; clip-rule:evenodd" xmlns:xlink="http://www.w3.org/1999/xlink">
<g><path style="opacity:0.986" fill="#fefffe" d="M 2221.5,96.5 C 2276.18,96.2287 2330.85,97.062 2385.5,99C 2509.96,109.316 2613.79,160.483 2697,252.5C 2730.77,301.395 2751.77,355.395 2760,414.5C 2771.39,539.264 2775.56,664.264 2772.5,789.5C 2640.5,789.5 2508.5,789.5 2376.5,789.5C 2376.92,670.148 2375.75,550.815 2373,431.5C 2370.94,410.924 2365.61,391.258 2357,372.5C 2353.28,366.556 2348.12,362.389 2341.5,360C 2301.01,344.932 2270.51,356.099 2250,393.5C 2246.36,410.347 2243.69,427.347 2242,444.5C 2238.67,741.166 2238.67,1037.83 2242,1334.5C 2243.54,1356.47 2249.54,1377.13 2260,1396.5C 2267.15,1403.32 2275.31,1408.49 2284.5,1412C 2300.23,1414.19 2315.89,1413.86 2331.5,1411C 2348.71,1404.45 2359.87,1392.28 2365,1374.5C 2369.64,1349.36 2372.64,1324.03 2374,1298.5C 2375.87,1209.18 2376.71,1119.84 2376.5,1030.5C 2508.5,1030.5 2640.5,1030.5 2772.5,1030.5C 2776.6,1145.38 2770.43,1259.71 2754,1373.5C 2739,1456.72 2698.17,1523.89 2631.5,1575C 2546.32,1639.4 2449.99,1672.4 2342.5,1674C 2254.21,1677.5 2167.87,1666.17 2083.5,1640C 1967.28,1599.4 1894.78,1519.24 1866,1399.5C 1854.9,1346.71 1847.9,1293.37 1845,1239.5C 1841.67,989.833 1841.67,740.167 1845,490.5C 1852.53,297.01 1948.7,172.176 2133.5,116C 2162.95,109.413 2192.28,102.913 2221.5,96.5 Z"/></g>
<g><path style="opacity:0.978" fill="#fefffe" d="M 840.5,129.5 C 945.203,129.158 1049.87,130.824 1154.5,134.5C 1315.7,636.309 1477.37,1137.98 1639.5,1639.5C 1543.17,1644.83 1446.83,1644.83 1350.5,1639.5C 1286.05,1420.65 1220.88,1201.98 1155,983.5C 1153.1,1098.47 1152.1,1213.47 1152,1328.5C 1151.21,1433.51 1151.38,1538.51 1152.5,1643.5C 1040.83,1643.5 929.167,1643.5 817.5,1643.5C 817.5,1139.17 817.5,634.833 817.5,130.5C 825.352,130.825 833.018,130.492 840.5,129.5 Z"/></g>
<g><path style="opacity:0.982" fill="#fefffe" d="M 4956.5,129.5 C 5056.86,129.191 5157.19,130.691 5257.5,134C 5261.42,134.203 5265.25,134.703 5269,135.5C 5432.41,634.893 5594.91,1134.56 5756.5,1634.5C 5736.88,1636.38 5717.22,1637.55 5697.5,1638C 5639.83,1639.99 5582.17,1639.99 5524.5,1638C 5504.78,1637.61 5485.11,1636.44 5465.5,1634.5C 5401.38,1416.63 5336.54,1198.96 5271,981.5C 5268.86,1200.83 5268.03,1420.16 5268.5,1639.5C 5157.17,1639.5 5045.83,1639.5 4934.5,1639.5C 4934.5,1136.5 4934.5,633.5 4934.5,130.5C 4942.02,130.825 4949.35,130.492 4956.5,129.5 Z"/></g>
<g><path style="opacity:0.985" fill="#fefffe" d="M 21.5,130.5 C 241.5,130.5 461.5,130.5 681.5,130.5C 681.5,232.167 681.5,333.833 681.5,435.5C 593.833,435.5 506.167,435.5 418.5,435.5C 418.5,529.5 418.5,623.5 418.5,717.5C 500.5,717.5 582.5,717.5 664.5,717.5C 664.5,815.167 664.5,912.833 664.5,1010.5C 582.5,1010.5 500.5,1010.5 418.5,1010.5C 418.5,1119.83 418.5,1229.17 418.5,1338.5C 515.833,1338.5 613.167,1338.5 710.5,1338.5C 710.5,1440.17 710.5,1541.83 710.5,1643.5C 480.833,1643.5 251.167,1643.5 21.5,1643.5C 21.5,1139.17 21.5,634.833 21.5,130.5 Z"/></g>
<g><path style="opacity:0.98" fill="#fefffe" d="M 1367.5,130.5 C 1479.17,130.5 1590.83,130.5 1702.5,130.5C 1702.5,243.167 1702.5,355.833 1702.5,468.5C 1590.83,468.5 1479.17,468.5 1367.5,468.5C 1367.5,355.833 1367.5,243.167 1367.5,130.5 Z"/></g>
<g><path style="opacity:0.986" fill="#fefffe" d="M 2905.5,130.5 C 3037.83,130.5 3170.17,130.5 3302.5,130.5C 3302.5,309.5 3302.5,488.5 3302.5,667.5C 3340.83,667.5 3379.17,667.5 3417.5,667.5C 3417.5,488.5 3417.5,309.5 3417.5,130.5C 3549.83,130.5 3682.17,130.5 3814.5,130.5C 3814.5,634.833 3814.5,1139.17 3814.5,1643.5C 3682.17,1643.5 3549.83,1643.5 3417.5,1643.5C 3417.5,1432.5 3417.5,1221.5 3417.5,1010.5C 3379.17,1010.5 3340.83,1010.5 3302.5,1010.5C 3302.5,1221.5 3302.5,1432.5 3302.5,1643.5C 3170.17,1643.5 3037.83,1643.5 2905.5,1643.5C 2905.5,1139.17 2905.5,634.833 2905.5,130.5 Z"/></g>
<g><path style="opacity:0.986" fill="#fefffe" d="M 4075.5,130.5 C 4266.4,130.167 4457.24,130.501 4648,131.5C 4721.58,633.036 4796.41,1134.37 4872.5,1635.5C 4737.5,1640.83 4602.5,1640.83 4467.5,1635.5C 4458.46,1547.99 4451.46,1460.32 4446.5,1372.5C 4401.1,1371.76 4355.77,1373.09 4310.5,1376.5C 4301.27,1464.08 4292.93,1551.74 4285.5,1639.5C 4148.86,1643.12 4012.19,1644.29 3875.5,1643C 3941.14,1138.73 4007.8,634.568 4075.5,130.5 Z M 4372.5,502.5 C 4375.15,502.738 4376.98,504.072 4378,506.5C 4394.26,704.77 4413.09,902.77 4434.5,1100.5C 4390.82,1101.7 4347.15,1101.2 4303.5,1099C 4302.88,1097.6 4302.55,1096.1 4302.5,1094.5C 4324.19,896.964 4347.53,699.631 4372.5,502.5 Z"/></g>
<g><path style="opacity:0.988" fill="#fefffe" d="M 5484.5,130.5 C 5595.83,130.5 5707.17,130.5 5818.5,130.5C 5818.03,239.178 5816.69,347.845 5814.5,456.5C 5704.5,456.5 5594.5,456.5 5484.5,456.5C 5484.5,347.833 5484.5,239.167 5484.5,130.5 Z"/></g>
<g><path style="opacity:0.986" fill="#fefffe" d="M 5900.5,130.5 C 6188.5,130.5 6476.5,130.5 6764.5,130.5C 6764.5,232.167 6764.5,333.833 6764.5,435.5C 6686.83,435.5 6609.17,435.5 6531.5,435.5C 6531.5,836.833 6531.5,1238.17 6531.5,1639.5C 6399.17,1639.5 6266.83,1639.5 6134.5,1639.5C 6134.5,1238.17 6134.5,836.833 6134.5,435.5C 6056.5,435.5 5978.5,435.5 5900.5,435.5C 5900.5,333.833 5900.5,232.167 5900.5,130.5 Z"/></g>
<g><path style="opacity:0.935" fill="#fefffe" d="M 3967.5,1947.5 C 4060.43,1942.72 4147.1,1963.55 4227.5,2010C 4296.72,2056.91 4334.06,2122.41 4339.5,2206.5C 4301.5,2206.5 4263.5,2206.5 4225.5,2206.5C 4220.4,2130.57 4181.4,2081.74 4108.5,2060C 4040.04,2038.85 3971.37,2038.19 3902.5,2058C 3810.25,2098.63 3756.08,2168.79 3740,2268.5C 3721.5,2369.66 3736.17,2465.66 3784,2556.5C 3829.22,2621.38 3891.38,2658.55 3970.5,2668C 4079.19,2679 4170.36,2644.5 4244,2564.5C 4246.74,2524.21 4247.57,2483.88 4246.5,2443.5C 4178.5,2443.5 4110.5,2443.5 4042.5,2443.5C 4042.5,2411.17 4042.5,2378.83 4042.5,2346.5C 4147.17,2346.5 4251.83,2346.5 4356.5,2346.5C 4357.16,2481.88 4356.5,2617.04 4354.5,2752C 4328.32,2753.31 4302.32,2751.81 4276.5,2747.5C 4267.62,2722.73 4258.45,2698.07 4249,2673.5C 4188.49,2731.63 4115.99,2760.97 4031.5,2761.5C 3995.01,2761.8 3958.67,2759.63 3922.5,2755C 3831.72,2739.21 3757.89,2695.38 3701,2623.5C 3685.3,2604.12 3672.63,2582.78 3663,2559.5C 3617.95,2455.53 3607.95,2348.2 3633,2237.5C 3661.41,2105.44 3738.91,2016.28 3865.5,1970C 3898.62,1957.72 3932.62,1950.22 3967.5,1947.5 Z"/></g>
<g><path style="opacity:0.944" fill="#fefffe" d="M 4786.5,1947.5 C 4867.41,1943.11 4943.74,1959.61 5015.5,1997C 5084.78,2042.04 5119.11,2106.2 5118.5,2189.5C 5083.5,2189.5 5048.5,2189.5 5013.5,2189.5C 5004.99,2106.49 4959.32,2059.99 4876.5,2050C 4840.17,2046.67 4803.83,2046.67 4767.5,2050C 4724.23,2054.55 4688.73,2073.38 4661,2106.5C 4634.43,2152.33 4639.59,2194.17 4676.5,2232C 4699.13,2244.48 4722.8,2254.48 4747.5,2262C 4832.34,2280.46 4916,2303.12 4998.5,2330C 5122.11,2383.75 5164.28,2475.58 5125,2605.5C 5081.52,2694.58 5010.36,2745.41 4911.5,2758C 4841.65,2765.74 4772.65,2761.07 4704.5,2744C 4639.84,2727.27 4588.67,2691.43 4551,2636.5C 4524.76,2593.61 4510.93,2546.95 4509.5,2496.5C 4544.59,2495.71 4579.59,2497.04 4614.5,2500.5C 4626.68,2577.51 4670.02,2627.34 4744.5,2650C 4810.59,2668.22 4876.59,2667.89 4942.5,2649C 5021.08,2616.67 5046.58,2560.17 5019,2479.5C 5012.67,2469.36 5004.84,2460.53 4995.5,2453C 4966.39,2436.18 4935.72,2422.85 4903.5,2413C 4839.66,2396.37 4775.66,2380.37 4711.5,2365C 4660.4,2351.05 4615.9,2325.88 4578,2289.5C 4535.23,2227.36 4526.57,2160.69 4552,2089.5C 4581.91,2027.6 4629.74,1986.43 4695.5,1966C 4715.5,1961 4735.5,1956 4755.5,1951C 4765.98,1949.82 4776.32,1948.65 4786.5,1947.5 Z"/></g>
<g><path style="opacity:0.944" fill="#fefffe" d="M 1646.5,1963.5 C 1793.51,1962.98 1940.51,1963.82 2087.5,1966C 2185.77,1974.6 2246.93,2026.76 2271,2122.5C 2298.6,2260.75 2245.77,2351.59 2112.5,2395C 2152.19,2412.03 2182.36,2439.53 2203,2477.5C 2239.31,2566.63 2273.81,2656.46 2306.5,2747C 2287.04,2750.65 2267.38,2752.15 2247.5,2751.5C 2228.4,2751.94 2209.4,2750.77 2190.5,2748C 2189.58,2747.63 2188.75,2747.13 2188,2746.5C 2161.01,2673.88 2135.01,2600.88 2110,2527.5C 2085.38,2472.27 2043.88,2436.77 1985.5,2421C 1909.18,2418.87 1832.85,2418.04 1756.5,2418.5C 1756.5,2529.5 1756.5,2640.5 1756.5,2751.5C 1719.83,2751.5 1683.17,2751.5 1646.5,2751.5C 1646.5,2488.83 1646.5,2226.17 1646.5,1963.5 Z M 1763.5,2055.5 C 1867.27,2054.26 1970.93,2056.76 2074.5,2063C 2135.33,2080.84 2166.33,2121.5 2167.5,2185C 2166.13,2261.7 2127.46,2305.03 2051.5,2315C 1953.25,2320.97 1854.91,2323.14 1756.5,2321.5C 1756.5,2233.17 1756.5,2144.83 1756.5,2056.5C 1759.06,2056.8 1761.39,2056.47 1763.5,2055.5 Z"/></g>
<g><path style="opacity:0.95" fill="#fefffe" d="M 2492.5,1963.5 C 2529.17,1963.5 2565.83,1963.5 2602.5,1963.5C 2602.5,2226.17 2602.5,2488.83 2602.5,2751.5C 2565.83,2751.5 2529.17,2751.5 2492.5,2751.5C 2492.5,2488.83 2492.5,2226.17 2492.5,1963.5 Z"/></g>
<g><path style="opacity:0.937" fill="#fefffe" d="M 2821.5,1963.5 C 2847.84,1963.33 2874.17,1963.5 2900.5,1964C 2912.44,1964.16 2924.27,1964.99 2936,1966.5C 3069.73,2165.89 3203.06,2365.56 3336,2565.5C 3338.19,2364.84 3339.02,2164.17 3338.5,1963.5C 3373.5,1963.5 3408.5,1963.5 3443.5,1963.5C 3443.83,2226.17 3443.5,2488.83 3442.5,2751.5C 3409.14,2753.1 3375.81,2752.27 3342.5,2749C 3337.81,2748.92 3333.31,2748.09 3329,2746.5C 3195.5,2545.51 3062.5,2344.18 2930,2142.5C 2928.1,2244.47 2927.1,2346.47 2927,2448.5C 2926.18,2549.52 2926.34,2650.52 2927.5,2751.5C 2892.17,2751.5 2856.83,2751.5 2821.5,2751.5C 2821.5,2488.83 2821.5,2226.17 2821.5,1963.5 Z"/></g>
</svg>
