<?xml version="1.0" encoding="UTF-8"?>
<!DOCTYPE svg PUBLIC "-//W3C//DTD SVG 1.1//EN" "http://www.w3.org/Graphics/SVG/1.1/DTD/svg11.dtd">
<svg xmlns="http://www.w3.org/2000/svg" version="1.1" width="1639px" height="685px" style="shape-rendering:geometricPrecision; text-rendering:geometricPrecision; image-rendering:optimizeQuality; fill-rule:evenodd; clip-rule:evenodd" xmlns:xlink="http://www.w3.org/1999/xlink">
<g><path style="opacity:0.987" fill="#000000" d="M 533.5,23.5 C 546.504,23.3334 559.504,23.5001 572.5,24C 602.279,26.4744 627.113,38.6411 647,60.5C 656.452,73.9391 661.785,88.9391 663,105.5C 665.248,133.449 666.081,161.449 665.5,189.5C 633.833,189.5 602.167,189.5 570.5,189.5C 570.667,162.498 570.5,135.498 570,108.5C 570.038,101.847 568.705,95.5134 566,89.5C 564.681,87.5125 562.848,86.3459 560.5,86C 551.126,83.224 544.293,86.0574 540,94.5C 539.088,98.7946 538.421,103.128 538,107.5C 537.333,177.833 537.333,248.167 538,318.5C 538.105,324.588 539.605,330.255 542.5,335.5C 544.028,336.861 545.695,338.028 547.5,339C 551.5,339.667 555.5,339.667 559.5,339C 564.071,337.427 566.904,334.26 568,329.5C 568.966,323.87 569.633,318.204 570,312.5C 570.5,290.836 570.667,269.169 570.5,247.5C 602.167,247.5 633.833,247.5 665.5,247.5C 666.392,274.976 664.892,302.309 661,329.5C 657.41,349.522 647.577,365.689 631.5,378C 614.444,391.187 595.111,398.854 573.5,401C 549,403.426 525,401.092 501.5,394C 472.832,384.335 454.999,364.835 448,335.5C 445.311,322.632 443.644,309.632 443,296.5C 442.333,237.5 442.333,178.5 443,119.5C 444.226,72.2808 467.392,41.7808 512.5,28C 519.621,26.4111 526.621,24.9111 533.5,23.5 Z"/></g>
<g><path style="opacity:0.987" fill="#000000" d="M 5.5,31.5 C 58.1667,31.5 110.833,31.5 163.5,31.5C 163.5,55.8333 163.5,80.1667 163.5,104.5C 142.5,104.5 121.5,104.5 100.5,104.5C 100.5,127.167 100.5,149.833 100.5,172.5C 120.167,172.5 139.833,172.5 159.5,172.5C 159.5,195.833 159.5,219.167 159.5,242.5C 139.833,242.5 120.167,242.5 100.5,242.5C 100.5,268.833 100.5,295.167 100.5,321.5C 123.833,321.5 147.167,321.5 170.5,321.5C 170.5,345.833 170.5,370.167 170.5,394.5C 115.5,394.5 60.5,394.5 5.5,394.5C 5.5,273.5 5.5,152.5 5.5,31.5 Z"/></g>
<g><path style="opacity:0.982" fill="#000000" d="M 196.5,31.5 C 223.408,31.1718 250.241,31.5051 277,32.5C 315.734,152.87 354.568,273.203 393.5,393.5C 370.5,394.833 347.5,394.833 324.5,393.5C 308.77,340.476 292.937,287.476 277,234.5C 276.5,287.832 276.333,341.166 276.5,394.5C 249.833,394.5 223.167,394.5 196.5,394.5C 196.5,273.5 196.5,152.5 196.5,31.5 Z"/></g>
<g><path style="opacity:0.986" fill="#000000" d="M 328.5,31.5 C 355.167,31.5 381.833,31.5 408.5,31.5C 408.5,58.5 408.5,85.5 408.5,112.5C 381.833,112.5 355.167,112.5 328.5,112.5C 328.5,85.5 328.5,58.5 328.5,31.5 Z"/></g>
<g><path style="opacity:0.99" fill="#000000" d="M 697.5,31.5 C 729.167,31.5 760.833,31.5 792.5,31.5C 792.5,74.5 792.5,117.5 792.5,160.5C 801.833,160.5 811.167,160.5 820.5,160.5C 820.5,117.5 820.5,74.5 820.5,31.5C 852.167,31.5 883.833,31.5 915.5,31.5C 915.5,152.5 915.5,273.5 915.5,394.5C 883.833,394.5 852.167,394.5 820.5,394.5C 820.5,343.833 820.5,293.167 820.5,242.5C 811.167,242.5 801.833,242.5 792.5,242.5C 792.5,293.167 792.5,343.833 792.5,394.5C 760.833,394.5 729.167,394.5 697.5,394.5C 697.5,273.5 697.5,152.5 697.5,31.5 Z"/></g>
<g><path style="opacity:0.989" fill="#000000" d="M 978.5,31.5 C 1024.17,31.5 1069.83,31.5 1115.5,31.5C 1133.13,151.897 1151.13,272.231 1169.5,392.5C 1137.17,393.833 1104.83,393.833 1072.5,392.5C 1070.27,371.566 1068.61,350.566 1067.5,329.5C 1056.48,329.168 1045.48,329.501 1034.5,330.5C 1032.34,351.47 1030.34,372.47 1028.5,393.5C 995.842,394.36 963.175,394.693 930.5,394.5C 946.127,273.446 962.127,152.446 978.5,31.5 Z M 1049.5,120.5 C 1050.12,120.611 1050.62,120.944 1051,121.5C 1054.93,169.228 1059.43,216.895 1064.5,264.5C 1053.83,264.667 1043.16,264.5 1032.5,264C 1037.71,216.156 1043.38,168.323 1049.5,120.5 Z"/></g>
<g><path style="opacity:0.986" fill="#000000" d="M 1184.5,31.5 C 1211.17,31.1669 1237.84,31.5002 1264.5,32.5C 1303.81,152.405 1342.81,272.405 1381.5,392.5C 1358.27,393.827 1335.1,393.827 1312,392.5C 1296.54,339.774 1280.87,287.107 1265,234.5C 1264.5,287.499 1264.33,340.499 1264.5,393.5C 1237.83,393.5 1211.17,393.5 1184.5,393.5C 1184.5,272.833 1184.5,152.167 1184.5,31.5 Z"/></g>
<g><path style="opacity:0.991" fill="#000000" d="M 1316.5,31.5 C 1343.17,31.5 1369.83,31.5 1396.5,31.5C 1396.37,57.5032 1396.04,83.5032 1395.5,109.5C 1369.17,109.5 1342.83,109.5 1316.5,109.5C 1316.5,83.5 1316.5,57.5 1316.5,31.5 Z"/></g>
<g><path style="opacity:0.99" fill="#000000" d="M 1416.5,31.5 C 1485.5,31.5 1554.5,31.5 1623.5,31.5C 1623.5,55.8333 1623.5,80.1667 1623.5,104.5C 1604.83,104.5 1586.17,104.5 1567.5,104.5C 1567.5,200.833 1567.5,297.167 1567.5,393.5C 1535.83,393.5 1504.17,393.5 1472.5,393.5C 1472.5,297.167 1472.5,200.833 1472.5,104.5C 1453.83,104.5 1435.17,104.5 1416.5,104.5C 1416.5,80.1667 1416.5,55.8333 1416.5,31.5 Z"/></g>
<g><path style="opacity:0.947" fill="#000000" d="M 944.5,468.5 C 969.077,465.482 992.077,469.982 1013.5,482C 1030.66,493.155 1040,508.988 1041.5,529.5C 1032.5,529.5 1023.5,529.5 1014.5,529.5C 1013.76,514.595 1006.76,503.762 993.5,497C 974.854,489.561 955.854,488.561 936.5,494C 912.684,504.761 899.517,523.261 897,549.5C 893.703,572.102 897.37,593.435 908,613.5C 917.732,627.958 931.232,636.792 948.5,640C 976.515,644.33 1000.01,636.164 1019,615.5C 1019.5,605.839 1019.67,596.172 1019.5,586.5C 1003.17,586.5 986.833,586.5 970.5,586.5C 970.5,578.833 970.5,571.167 970.5,563.5C 995.5,563.5 1020.5,563.5 1045.5,563.5C 1045.5,595.833 1045.5,628.167 1045.5,660.5C 1039.13,660.83 1032.8,660.496 1026.5,659.5C 1024.43,653.462 1022.27,647.462 1020,641.5C 1003.56,657.204 983.895,664.204 961,662.5C 928.186,663.261 902.52,650.261 884,623.5C 871.48,600.722 866.814,576.389 870,550.5C 875.247,505.097 900.08,477.764 944.5,468.5 Z"/></g>
<g><path style="opacity:0.951" fill="#000000" d="M 1141.5,468.5 C 1163.83,465.664 1184.83,469.497 1204.5,480C 1220.5,490.828 1228.5,505.995 1228.5,525.5C 1220.17,525.5 1211.83,525.5 1203.5,525.5C 1201.44,505.603 1190.44,494.436 1170.5,492C 1161.83,491.333 1153.17,491.333 1144.5,492C 1133.57,493.048 1124.74,497.881 1118,506.5C 1112.29,517.499 1113.79,527.332 1122.5,536C 1128.85,539.45 1135.51,542.116 1142.5,544C 1161.42,548.063 1180.08,553.063 1198.5,559C 1228.93,571.601 1239.43,593.767 1230,625.5C 1219.51,646.848 1202.35,659.015 1178.5,662C 1158.7,664.15 1139.36,662.15 1120.5,656C 1096.58,644.886 1083.91,626.053 1082.5,599.5C 1090.86,599.169 1099.19,599.502 1107.5,600.5C 1109.99,617.153 1118.99,628.653 1134.5,635C 1151.73,640.582 1169.06,640.916 1186.5,636C 1205.29,628.253 1211.46,614.753 1205,595.5C 1203.54,593.04 1201.71,590.873 1199.5,589C 1192.28,584.702 1184.61,581.369 1176.5,579C 1161.86,575.206 1147.2,571.539 1132.5,568C 1119.63,564.774 1108.47,558.607 1099,549.5C 1089.17,535.406 1086.84,520.072 1092,503.5C 1098.96,487.589 1110.79,477.089 1127.5,472C 1132.3,470.801 1136.96,469.634 1141.5,468.5 Z"/></g>
<g><path style="opacity:0.953" fill="#000000" d="M 395.5,471.5 C 430.168,471.333 464.835,471.5 499.5,472C 523.719,473.555 538.886,486.055 545,509.5C 551.52,542.987 538.686,564.82 506.5,575C 516.526,579.025 524.026,585.858 529,595.5C 537.657,616.638 545.824,637.971 553.5,659.5C 544.167,660.833 534.833,660.833 525.5,659.5C 519.038,642.28 512.871,624.947 507,607.5C 501.179,593.68 491.012,584.846 476.5,581C 458.17,580.5 439.836,580.333 421.5,580.5C 421.5,607.167 421.5,633.833 421.5,660.5C 412.833,660.5 404.167,660.5 395.5,660.5C 395.5,597.5 395.5,534.5 395.5,471.5 Z M 421.5,493.5 C 446.877,493.047 472.21,493.547 497.5,495C 512.458,499.058 520.125,508.891 520.5,524.5C 520.044,543.456 510.378,553.956 491.5,556C 468.187,557.318 444.854,557.818 421.5,557.5C 421.5,536.167 421.5,514.833 421.5,493.5 Z"/></g>
<g><path style="opacity:0.959" fill="#000000" d="M 598.5,471.5 C 607.167,471.5 615.833,471.5 624.5,471.5C 624.5,534.5 624.5,597.5 624.5,660.5C 615.833,660.5 607.167,660.5 598.5,660.5C 598.5,597.5 598.5,534.5 598.5,471.5 Z"/></g>
<g><path style="opacity:0.947" fill="#000000" d="M 677.5,471.5 C 686.506,471.334 695.506,471.5 704.5,472C 736.791,520.081 768.957,568.247 801,616.5C 801.5,568.168 801.667,519.834 801.5,471.5C 809.833,471.5 818.167,471.5 826.5,471.5C 826.5,534.5 826.5,597.5 826.5,660.5C 817.475,660.832 808.475,660.498 799.5,659.5C 767.137,610.969 734.97,562.302 703,513.5C 702.5,562.499 702.333,611.499 702.5,660.5C 694.167,660.5 685.833,660.5 677.5,660.5C 677.5,597.5 677.5,534.5 677.5,471.5 Z"/></g>
</svg>
